<svg xmlns="http://www.w3.org/2000/svg" xmlns:xlink="http://www.w3.org/1999/xlink" width="1103pt" height="1888pt" viewBox="0 0 1103 1888"><g id="graph0" class="graph" transform="scale(1 1) rotate(0) translate(4 1884)"><title>G</title><polygon fill="#fff" stroke="none" points="-4 4 -4 -1884 1099 -1884 1099 4 -4 4"/><g id="clust1" class="cluster"><title>cluster_family_0</title><polygon fill="#fafafa" stroke="#fafafa" points="253 -1611 253 -1820 489 -1820 489 -1611 253 -1611"/><text x="261" y="-1802.6" font-family="Helvetica, Arial, sans-serif" font-size="16" font-weight="bold" text-anchor="start">Targaryen</text></g><g id="clust3" class="cluster"><title>cluster_family_1</title><polygon fill="#fafafa" stroke="#fafafa" points="289 -789 289 -1034 770 -1034 770 -789 289 -789"/><text x="297" y="-1016.6" font-family="Helvetica, Arial, sans-serif" font-size="16" font-weight="bold" text-anchor="start">Greyjoy</text></g><g id="clust6" class="cluster"><title>cluster_family_2</title><polygon fill="#fafafa" stroke="#fafafa" points="8 -1042 8 -1549 806 -1549 806 -1042 8 -1042"/><text x="16" y="-1531.6" font-family="Helvetica, Arial, sans-serif" font-size="16" font-weight="bold" text-anchor="start">Stark</text></g><g id="clust7" class="cluster"><title>cluster_family_2_0</title></g><g id="clust10" class="cluster"><title>cluster_family_2_1</title></g><g id="clust11" class="cluster"><title>cluster_family_2_1_0</title></g><g id="clust18" class="cluster"><title>cluster_family_3</title><polygon fill="#fafafa" stroke="#fafafa" points="534 -8 534 -145 770 -145 770 -8 534 -8"/><text x="542" y="-127.6" font-family="Helvetica, Arial, sans-serif" font-size="16" font-weight="bold" text-anchor="start">Tyrell</text></g><g id="clust20" class="cluster"><title>cluster_family_4</title><polygon fill="#fafafa" stroke="#fafafa" points="534 -153 534 -410 1051 -410 1051 -153 534 -153"/><text x="542" y="-392.6" font-family="Helvetica, Arial, sans-serif" font-size="16" font-weight="bold" text-anchor="start">Barratheon</text></g><g id="clust21" class="cluster"><title>cluster_family_4_0</title></g><g id="clust24" class="cluster"><title>cluster_family_4_1</title></g><g id="clust27" class="cluster"><title>cluster_family_4_2</title></g><g id="clust30" class="cluster"><title>cluster_family_5</title><polygon fill="#fafafa" stroke="#fafafa" points="289 -466 289 -781 1051 -781 1051 -466 289 -466"/><text x="297" y="-763.6" font-family="Helvetica, Arial, sans-serif" font-size="16" font-weight="bold" text-anchor="start">Lannister</text></g><g id="clust31" class="cluster"><title>cluster_family_5_0</title></g><g id="clust33" class="cluster"><title>cluster_family_5_1</title></g><g id="clust35" class="cluster"><title>cluster_family_5_2</title></g><g id="clust41" class="cluster"><title>cluster_family_6</title><polygon fill="#fafafa" stroke="#fafafa" points="8 -159 8 -404 489 -404 489 -159 8 -159"/><text x="16" y="-386.6" font-family="Helvetica, Arial, sans-serif" font-size="16" font-weight="bold" text-anchor="start">Tully</text></g><g id="clust44" class="cluster"><title>cluster_family_7</title></g><g id="clust46" class="cluster"><title>cluster_family_8</title></g><g id="clust48" class="cluster"><title>cluster_family_9</title></g><g id="clust50" class="cluster"><title>cluster_family_10</title></g><g id="clust52" class="cluster"><title>cluster_family_11</title></g><g id="clust54" class="cluster"><title>cluster_family_12</title></g><g id="clust56" class="cluster"><title>cluster_family_13</title></g><g id="clust58" class="cluster"><title>cluster_family_14</title></g><g id="node1" class="node"><title>siblings_0</title><polygon fill="#1abc9c" stroke="#ccc" stroke-width="0" points="270 -1702.5 263 -1702.5 263 -1701.5 270 -1701.5 270 -1702.5"/></g><g id="node2" class="node"><title>Danaerys</title><polygon fill="#fff" stroke="#ccc" points="479 -1783 299 -1783 299 -1741 479 -1741 479 -1783"/><text x="359.551" y="-1764.4" font-family="Helvetica, Arial, sans-serif" font-size="14" text-anchor="start">Danaerys</text><text x="343.938" y="-1750" fill="#aaa" font-family="Helvetica, Arial, sans-serif" font-size="10" text-anchor="start">Danaerys Targaryen</text></g><g id="edge1" class="edge"><title>siblings_0-&gt;Danaerys</title><path fill="none" stroke="#1abc9c" d="M267,-1702.67C267,-1709.27 267,-1762 267,-1762 267,-1762 288.736,-1762 288.736,-1762"/><polygon fill="#1abc9c" stroke="#1abc9c" points="296.735 -1752 296.736 -1772 292.736 -1772 292.735 -1752 296.735 -1752"/><polyline fill="none" stroke="#1abc9c" points="298.736 -1762 288.736 -1762"/></g><g id="node3" class="node"><title>Rhaegar</title><polygon fill="#f4f4f4" stroke="#ccc" stroke-width="0" points="479 -1723 299 -1723 299 -1681 479 -1681 479 -1723"/><text x="362.16" y="-1704.4" font-family="Helvetica, Arial, sans-serif" font-size="14" text-anchor="start">Rhaegar</text><text x="345.658" y="-1690" fill="#aaa" font-family="Helvetica, Arial, sans-serif" font-size="10" text-anchor="start">Rhaegar Targaryen</text></g><g id="edge2" class="edge"><title>siblings_0-&gt;Rhaegar</title><path fill="none" stroke="#1abc9c" d="M270.034,-1702C270.034,-1702 288.811,-1702 288.811,-1702"/><polygon fill="#1abc9c" stroke="#1abc9c" points="296.81 -1692 296.811 -1712 292.811 -1712 292.81 -1692 296.81 -1692"/><polyline fill="none" stroke="#1abc9c" points="298.811 -1702 288.811 -1702"/></g><g id="node4" class="node"><title>Viserys</title><polygon fill="#fff" stroke="#ccc" points="479 -1663 299 -1663 299 -1621 479 -1621 479 -1663"/><text x="366.557" y="-1644.4" font-family="Helvetica, Arial, sans-serif" font-size="14" text-anchor="start">Viserys</text><text x="348.942" y="-1630" fill="#aaa" font-family="Helvetica, Arial, sans-serif" font-size="10" text-anchor="start">Viserys Targaryen</text></g><g id="edge3" class="edge"><title>siblings_0-&gt;Viserys</title><path fill="none" stroke="#1abc9c" d="M267,-1701.33C267,-1694.73 267,-1642 267,-1642 267,-1642 288.736,-1642 288.736,-1642"/><polygon fill="#1abc9c" stroke="#1abc9c" points="296.735 -1632 296.736 -1652 292.736 -1652 292.735 -1632 296.735 -1632"/><polyline fill="none" stroke="#1abc9c" points="298.736 -1642 288.736 -1642"/></g><g id="node74" class="node"><title>union_9</title><ellipse cx="511.5" cy="-1842" fill="#3498db" stroke="#fff" rx="3.5" ry="3.5"/></g><g id="edge77" class="edge"><title>Danaerys-&gt;union_9</title><path fill="none" stroke="#3498db" stroke-dasharray="5 2" stroke-width=".25" d="M479.116,-1769C498.348,-1769 513,-1769 513,-1769 513,-1769 513,-1823.9 513,-1838.48"/></g><g id="node80" class="node"><title>union_13</title><ellipse cx="511.5" cy="-1588" fill="#e67e22" stroke="#fff" rx="3.5" ry="3.5"/></g><g id="edge85" class="edge"><title>Danaerys-&gt;union_13</title><path fill="none" stroke="#e67e22" stroke-dasharray="5 2" stroke-width=".25" d="M479.264,-1755C497.391,-1755 511,-1755 511,-1755 511,-1755 511,-1615.47 511,-1591.49"/></g><g id="node13" class="node"><title>union_2_0</title><ellipse cx="511.5" cy="-1397" fill="#9b59b6" stroke="#fff" rx="3.5" ry="3.5"/></g><g id="edge11" class="edge"><title>Rhaegar-&gt;union_2_0</title><path fill="none" stroke="#9b59b6" d="M479.4,-1702C488.232,-1702 494,-1702 494,-1702 494,-1702 494,-1398.17 494,-1398.17 494,-1398.17 503.041,-1398.17 508.126,-1398.17"/></g><g id="node5" class="node"><title>union_1</title><ellipse cx="511.5" cy="-898" fill="#2ecc71" stroke="#fff" rx="3.5" ry="3.5"/></g><g id="node8" class="node"><title>siblings_1</title><polygon fill="#2ecc71" stroke="#ccc" stroke-width="0" points="551 -898.5 544 -898.5 544 -897.5 551 -897.5 551 -898.5"/></g><g id="edge6" class="edge"><title>union_1-&gt;siblings_1</title><path fill="none" stroke="#2ecc71" d="M515.083,-898C521.913,-898 536.732,-898 543.715,-898"/></g><g id="node6" class="node"><title>Balon</title><polygon fill="#f4f4f4" stroke="#ccc" stroke-width="0" points="479 -943 299 -943 299 -907 479 -907 479 -943"/><text x="389" y="-920.8" font-family="Helvetica, Arial, sans-serif" font-size="14" text-anchor="middle">Balon</text></g><g id="edge4" class="edge"><title>Balon-&gt;union_1</title><path fill="none" stroke="#2ecc71" d="M479.116,-919C498.348,-919 513,-919 513,-919 513,-919 513,-907.188 513,-901.281"/></g><g id="node7" class="node"><title>Alannys</title><polygon fill="#f4f4f4" stroke="#ccc" stroke-width="0" points="479 -889 299 -889 299 -853 479 -853 479 -889"/><text x="389" y="-866.8" font-family="Helvetica, Arial, sans-serif" font-size="14" text-anchor="middle">Alannys</text></g><g id="edge5" class="edge"><title>Alannys-&gt;union_1</title><path fill="none" stroke="#2ecc71" d="M479.264,-865C497.391,-865 511,-865 511,-865 511,-865 511,-885.955 511,-894.468"/></g><g id="node9" class="node"><title>Theon</title><polygon fill="#fff" stroke="#ccc" points="760 -997 580 -997 580 -961 760 -961 760 -997"/><text x="670" y="-974.8" font-family="Helvetica, Arial, sans-serif" font-size="14" text-anchor="middle">Theon</text></g><g id="edge7" class="edge"><title>siblings_1-&gt;Theon</title><path fill="none" stroke="#2ecc71" d="M548,-898.842C548,-907.082 548,-973 548,-973 548,-973 569.736,-973 569.736,-973"/><polygon fill="#2ecc71" stroke="#2ecc71" points="577.735 -963 577.736 -983 573.736 -983 573.735 -963 577.735 -963"/><polyline fill="none" stroke="#2ecc71" points="579.736 -973 569.736 -973"/></g><g id="node10" class="node"><title>Yara</title><polygon fill="#fff" stroke="#ccc" points="760 -835 580 -835 580 -799 760 -799 760 -835"/><text x="670" y="-812.8" font-family="Helvetica, Arial, sans-serif" font-size="14" text-anchor="middle">Yara</text></g><g id="edge8" class="edge"><title>siblings_1-&gt;Yara</title><path fill="none" stroke="#2ecc71" d="M548,-897.483C548,-890.584 548,-817 548,-817 548,-817 569.736,-817 569.736,-817"/><polygon fill="#2ecc71" stroke="#2ecc71" points="577.735 -807 577.736 -827 573.736 -827 573.735 -807 577.735 -807"/><polyline fill="none" stroke="#2ecc71" points="579.736 -817 569.736 -817"/></g><g id="node11" class="node"><title>Rodrik</title><polygon fill="#f4f4f4" stroke="#ccc" stroke-width="0" points="760 -889 580 -889 580 -853 760 -853 760 -889"/><text x="670" y="-866.8" font-family="Helvetica, Arial, sans-serif" font-size="14" text-anchor="middle">Rodrik</text></g><g id="edge9" class="edge"><title>siblings_1-&gt;Rodrik</title><path fill="none" stroke="#2ecc71" d="M550,-897.481C550,-894.247 550,-877 550,-877 550,-877 569.972,-877 569.972,-877"/><polygon fill="#2ecc71" stroke="#2ecc71" points="577.971 -867 577.972 -887 573.972 -887 573.971 -867 577.971 -867"/><polyline fill="none" stroke="#2ecc71" points="579.972 -877 569.972 -877"/></g><g id="node12" class="node"><title>Maron</title><polygon fill="#f4f4f4" stroke="#ccc" stroke-width="0" points="760 -943 580 -943 580 -907 760 -907 760 -943"/><text x="670" y="-920.8" font-family="Helvetica, Arial, sans-serif" font-size="14" text-anchor="middle">Maron</text></g><g id="edge10" class="edge"><title>siblings_1-&gt;Maron</title><path fill="none" stroke="#2ecc71" d="M550,-898.816C550,-903.897 550,-931 550,-931 550,-931 569.972,-931 569.972,-931"/><polygon fill="#2ecc71" stroke="#2ecc71" points="577.971 -921 577.972 -941 573.972 -941 573.971 -921 577.971 -921"/><polyline fill="none" stroke="#2ecc71" points="579.972 -931 569.972 -931"/></g><g id="node15" class="node"><title>siblings_2_0</title><polygon fill="#9b59b6" stroke="#ccc" stroke-width="0" points="551 -1397.5 544 -1397.5 544 -1396.5 551 -1396.5 551 -1397.5"/></g><g id="edge13" class="edge"><title>union_2_0-&gt;siblings_2_0</title><path fill="none" stroke="#9b59b6" d="M515.083,-1397C521.913,-1397 536.732,-1397 543.715,-1397"/></g><g id="node14" class="node"><title>Lyanna</title><polygon fill="#f4f4f4" stroke="#ccc" stroke-width="0" points="479 -1404 299 -1404 299 -1368 479 -1368 479 -1404"/><text x="389" y="-1381.8" font-family="Helvetica, Arial, sans-serif" font-size="14" text-anchor="middle">Lyanna</text></g><g id="edge12" class="edge"><title>Lyanna-&gt;union_2_0</title><path fill="none" stroke="#9b59b6" d="M479.315,-1395.83C492.225,-1395.83 502.892,-1395.83 508.088,-1395.83"/></g><g id="node16" class="node"><title>Jon</title><polygon fill="#fff" stroke="#ccc" points="760 -1418 580 -1418 580 -1376 760 -1376 760 -1418"/><text x="659.217" y="-1399.4" font-family="Helvetica, Arial, sans-serif" font-size="14" text-anchor="start">Jon</text><text x="648.548" y="-1385" fill="#aaa" font-family="Helvetica, Arial, sans-serif" font-size="10" text-anchor="start">Jon Snow</text></g><g id="edge14" class="edge"><title>siblings_2_0-&gt;Jon</title><path fill="none" stroke="#9b59b6" d="M551.034,-1397C551.034,-1397 569.811,-1397 569.811,-1397"/><polygon fill="#9b59b6" stroke="#9b59b6" points="577.81 -1387 577.811 -1407 573.811 -1407 573.81 -1387 577.81 -1387"/><polyline fill="none" stroke="#9b59b6" points="579.811 -1397 569.811 -1397"/></g><g id="node17" class="node"><title>union_2_1_0</title><ellipse cx="792.5" cy="-1151" fill="#f1c40f" stroke="#fff" rx="3.5" ry="3.5"/></g><g id="node18" class="node"><title>Robb</title><polygon fill="#fff" stroke="#ccc" points="760 -1196 580 -1196 580 -1160 760 -1160 760 -1196"/><text x="670" y="-1173.8" font-family="Helvetica, Arial, sans-serif" font-size="14" text-anchor="middle">Robb</text></g><g id="edge15" class="edge"><title>Robb-&gt;union_2_1_0</title><path fill="none" stroke="#f1c40f" d="M760.038,-1178C778.794,-1178 793,-1178 793,-1178 793,-1178 793,-1162.17 793,-1154.75"/></g><g id="node19" class="node"><title>Talisa</title><polygon fill="#fff" stroke="#ccc" points="760 -1142 580 -1142 580 -1106 760 -1106 760 -1142"/><text x="670" y="-1119.8" font-family="Helvetica, Arial, sans-serif" font-size="14" text-anchor="middle">Talisa</text></g><g id="edge16" class="edge"><title>Talisa-&gt;union_2_1_0</title><path fill="none" stroke="#f1c40f" d="M760.116,-1124C779.348,-1124 794,-1124 794,-1124 794,-1124 794,-1140.48 794,-1147.69"/></g><g id="node20" class="node"><title>union_2_1</title><ellipse cx="511.5" cy="-1232" fill="#34495e" stroke="#fff" rx="3.5" ry="3.5"/></g><g id="node23" class="node"><title>siblings_2_1</title><polygon fill="#34495e" stroke="#ccc" stroke-width="0" points="551 -1232.5 544 -1232.5 544 -1231.5 551 -1231.5 551 -1232.5"/></g><g id="edge19" class="edge"><title>union_2_1-&gt;siblings_2_1</title><path fill="none" stroke="#34495e" d="M515.083,-1232C521.913,-1232 536.732,-1232 543.715,-1232"/></g><g id="node21" class="node"><title>Ned</title><polygon fill="#fff" stroke="#ccc" points="479 -1301 299 -1301 299 -1259 479 -1259 479 -1301"/><text x="376.164" y="-1282.4" font-family="Helvetica, Arial, sans-serif" font-size="14" text-anchor="start">Ned</text><text x="359.826" y="-1268" fill="#aaa" font-family="Helvetica, Arial, sans-serif" font-size="10" text-anchor="start">Eddard Stark</text></g><g id="edge17" class="edge"><title>Ned-&gt;union_2_1</title><path fill="none" stroke="#34495e" d="M479.038,-1263.5C497.794,-1263.5 512,-1263.5 512,-1263.5 512,-1263.5 512,-1244.27 512,-1235.86"/></g><g id="node22" class="node"><title>Catelyn</title><polygon fill="#fff" stroke="#ccc" points="479 -1140 299 -1140 299 -1104 479 -1104 479 -1140"/><text x="389" y="-1117.8" font-family="Helvetica, Arial, sans-serif" font-size="14" text-anchor="middle">Catelyn</text></g><g id="edge18" class="edge"><title>Catelyn-&gt;union_2_1</title><path fill="none" stroke="#34495e" d="M479.264,-1123C497.391,-1123 511,-1123 511,-1123 511,-1123 511,-1209.46 511,-1228.37"/></g><g id="edge25" class="edge"><title>siblings_2_1-&gt;Theon</title><path fill="none" stroke="#34495e" stroke-dasharray="5 2" stroke-width=".25" d="M546,-1231.29C546,-1216.8 546,-985 546,-985 546,-985 569.884,-985 569.884,-985"/><polygon fill="#34495e" stroke="#34495e" stroke-width=".25" points="577.883 -975 577.884 -995 573.884 -995 573.883 -975 577.883 -975"/><polyline fill="none" stroke="#34495e" stroke-width=".25" points="579.884 -985 569.884 -985"/></g><g id="edge26" class="edge"><title>siblings_2_1-&gt;Jon</title><path fill="none" stroke="#34495e" stroke-dasharray="5 2" stroke-width=".25" d="M546,-1232.68C546,-1243.7 546,-1384.75 546,-1384.75 546,-1384.75 569.884,-1384.75 569.884,-1384.75"/><polygon fill="#34495e" stroke="#34495e" stroke-width=".25" points="577.883 -1374.75 577.884 -1394.75 573.884 -1394.75 573.883 -1374.75 577.883 -1374.75"/><polyline fill="none" stroke="#34495e" stroke-width=".25" points="579.884 -1384.75 569.884 -1384.75"/></g><g id="edge20" class="edge"><title>siblings_2_1-&gt;Robb</title><path fill="none" stroke="#34495e" d="M549,-1231.39C549,-1225.46 549,-1178 549,-1178 549,-1178 569.846,-1178 569.846,-1178"/><polygon fill="#34495e" stroke="#34495e" points="577.846 -1168 577.847 -1188 573.847 -1188 573.846 -1168 577.846 -1168"/><polyline fill="none" stroke="#34495e" points="579.846 -1178 569.846 -1178"/></g><g id="node24" class="node"><title>Sansa</title><polygon fill="#fff" stroke="#ccc" points="760 -1088 580 -1088 580 -1052 760 -1052 760 -1088"/><text x="670" y="-1065.8" font-family="Helvetica, Arial, sans-serif" font-size="14" text-anchor="middle">Sansa</text></g><g id="edge21" class="edge"><title>siblings_2_1-&gt;Sansa</title><path fill="none" stroke="#34495e" d="M547,-1231.28C547,-1219.59 547,-1070 547,-1070 547,-1070 569.962,-1070 569.962,-1070"/><polygon fill="#34495e" stroke="#34495e" points="577.962 -1060 577.962 -1080 573.962 -1080 573.962 -1060 577.962 -1060"/><polyline fill="none" stroke="#34495e" points="579.962 -1070 569.962 -1070"/></g><g id="node25" class="node"><title>Arya</title><polygon fill="#fff" stroke="#ccc" points="760 -1304 580 -1304 580 -1268 760 -1268 760 -1304"/><text x="670" y="-1281.8" font-family="Helvetica, Arial, sans-serif" font-size="14" text-anchor="middle">Arya</text></g><g id="edge22" class="edge"><title>siblings_2_1-&gt;Arya</title><path fill="none" stroke="#34495e" d="M550,-1232.59C550,-1238.36 550,-1284.5 550,-1284.5 550,-1284.5 569.972,-1284.5 569.972,-1284.5"/><polygon fill="#34495e" stroke="#34495e" points="577.971 -1274.5 577.972 -1294.5 573.972 -1294.5 573.971 -1274.5 577.971 -1274.5"/><polyline fill="none" stroke="#34495e" points="579.972 -1284.5 569.972 -1284.5"/></g><g id="node26" class="node"><title>Bran</title><polygon fill="#fff" stroke="#ccc" points="760 -1358 580 -1358 580 -1322 760 -1322 760 -1358"/><text x="670" y="-1335.8" font-family="Helvetica, Arial, sans-serif" font-size="14" text-anchor="middle">Bran</text></g><g id="edge23" class="edge"><title>siblings_2_1-&gt;Bran</title><path fill="none" stroke="#34495e" d="M548,-1232.69C548,-1241.89 548,-1340 548,-1340 548,-1340 569.736,-1340 569.736,-1340"/><polygon fill="#34495e" stroke="#34495e" points="577.735 -1330 577.736 -1350 573.736 -1350 573.735 -1330 577.735 -1330"/><polyline fill="none" stroke="#34495e" points="579.736 -1340 569.736 -1340"/></g><g id="node27" class="node"><title>Rickon</title><polygon fill="#f4f4f4" stroke="#ccc" stroke-width="0" points="760 -1250 580 -1250 580 -1214 760 -1214 760 -1250"/><text x="670" y="-1227.8" font-family="Helvetica, Arial, sans-serif" font-size="14" text-anchor="middle">Rickon</text></g><g id="edge24" class="edge"><title>siblings_2_1-&gt;Rickon</title><path fill="none" stroke="#34495e" d="M551.034,-1232C551.034,-1232 569.811,-1232 569.811,-1232"/><polygon fill="#34495e" stroke="#34495e" points="577.81 -1222 577.811 -1242 573.811 -1242 573.81 -1222 577.81 -1222"/><polyline fill="none" stroke="#34495e" points="579.811 -1232 569.811 -1232"/></g><g id="node52" class="node"><title>union_5_1</title><ellipse cx="792.5" cy="-740" fill="#f1c40f" stroke="#fff" rx="3.5" ry="3.5"/></g><g id="edge50" class="edge"><title>Sansa-&gt;union_5_1</title><path fill="none" stroke="#f1c40f" stroke-dasharray="5 2" stroke-width=".25" d="M760.264,-1064C778.391,-1064 792,-1064 792,-1064 792,-1064 792,-779.234 792,-743.639"/></g><g id="node78" class="node"><title>union_11</title><ellipse cx="1073.5" cy="-768" fill="#34495e" stroke="#fff" rx="3.5" ry="3.5"/></g><g id="edge81" class="edge"><title>Sansa-&gt;union_11</title><path fill="none" stroke="#34495e" stroke-dasharray="5 2" stroke-width=".25" d="M760.163,-1076C879.231,-1076 1074,-1076 1074,-1076 1074,-1076 1074,-807.548 1074,-771.894"/></g><g id="node28" class="node"><title>union_2</title><ellipse cx="230.5" cy="-1413" fill="#3498db" stroke="#fff" rx="3.5" ry="3.5"/></g><g id="node31" class="node"><title>siblings_2</title><polygon fill="#3498db" stroke="#ccc" stroke-width="0" points="270 -1413.5 263 -1413.5 263 -1412.5 270 -1412.5 270 -1413.5"/></g><g id="edge29" class="edge"><title>union_2-&gt;siblings_2</title><path fill="none" stroke="#3498db" d="M234.083,-1413C240.913,-1413 255.732,-1413 262.715,-1413"/></g><g id="node29" class="node"><title>Rickard</title><polygon fill="#f4f4f4" stroke="#ccc" stroke-width="0" points="198 -1458 18 -1458 18 -1422 198 -1422 198 -1458"/><text x="108" y="-1435.8" font-family="Helvetica, Arial, sans-serif" font-size="14" text-anchor="middle">Rickard</text></g><g id="edge27" class="edge"><title>Rickard-&gt;union_2</title><path fill="none" stroke="#3498db" d="M198.038,-1446C216.794,-1446 231,-1446 231,-1446 231,-1446 231,-1425.04 231,-1416.53"/></g><g id="node30" class="node"><title>Lyarra</title><polygon fill="#f4f4f4" stroke="#ccc" stroke-width="0" points="198 -1404 18 -1404 18 -1368 198 -1368 198 -1404"/><text x="108" y="-1381.8" font-family="Helvetica, Arial, sans-serif" font-size="14" text-anchor="middle">Lyarra</text></g><g id="edge28" class="edge"><title>Lyarra-&gt;union_2</title><path fill="none" stroke="#3498db" d="M198.264,-1392C216.391,-1392 230,-1392 230,-1392 230,-1392 230,-1403.33 230,-1409.34"/></g><g id="edge30" class="edge"><title>siblings_2-&gt;Lyanna</title><path fill="none" stroke="#3498db" d="M269,-1412.18C269,-1407.1 269,-1380 269,-1380 269,-1380 288.972,-1380 288.972,-1380"/><polygon fill="#3498db" stroke="#3498db" points="296.971 -1370 296.972 -1390 292.972 -1390 292.971 -1370 296.971 -1370"/><polyline fill="none" stroke="#3498db" points="298.972 -1380 288.972 -1380"/></g><g id="edge31" class="edge"><title>siblings_2-&gt;Ned</title><path fill="none" stroke="#3498db" d="M266,-1412.15C266,-1400.82 266,-1280 266,-1280 266,-1280 288.962,-1280 288.962,-1280"/><polygon fill="#3498db" stroke="#3498db" points="296.962 -1270 296.962 -1290 292.962 -1290 292.962 -1270 296.962 -1270"/><polyline fill="none" stroke="#3498db" points="298.962 -1280 288.962 -1280"/></g><g id="node32" class="node"><title>Brandon</title><polygon fill="#f4f4f4" stroke="#ccc" stroke-width="0" points="479 -1458 299 -1458 299 -1422 479 -1422 479 -1458"/><text x="389" y="-1435.8" font-family="Helvetica, Arial, sans-serif" font-size="14" text-anchor="middle">Brandon</text></g><g id="edge32" class="edge"><title>siblings_2-&gt;Brandon</title><path fill="none" stroke="#3498db" d="M269,-1413.52C269,-1416.75 269,-1434 269,-1434 269,-1434 288.972,-1434 288.972,-1434"/><polygon fill="#3498db" stroke="#3498db" points="296.971 -1424 296.972 -1444 292.972 -1444 292.971 -1424 296.971 -1424"/><polyline fill="none" stroke="#3498db" points="298.972 -1434 288.972 -1434"/></g><g id="node33" class="node"><title>Benjen</title><polygon fill="#fff" stroke="#ccc" points="479 -1512 299 -1512 299 -1476 479 -1476 479 -1512"/><text x="389" y="-1489.8" font-family="Helvetica, Arial, sans-serif" font-size="14" text-anchor="middle">Benjen</text></g><g id="edge33" class="edge"><title>siblings_2-&gt;Benjen</title><path fill="none" stroke="#3498db" d="M265,-1413.52C265,-1420.42 265,-1494 265,-1494 265,-1494 288.884,-1494 288.884,-1494"/><polygon fill="#3498db" stroke="#3498db" points="296.883 -1484 296.884 -1504 292.884 -1504 292.883 -1484 296.883 -1484"/><polyline fill="none" stroke="#3498db" points="298.884 -1494 288.884 -1494"/></g><g id="node34" class="node"><title>siblings_3</title><polygon fill="#e67e22" stroke="#ccc" stroke-width="0" points="551 -63.5 544 -63.5 544 -62.5 551 -62.5 551 -63.5"/></g><g id="node35" class="node"><title>Margaery</title><polygon fill="#fff" stroke="#ccc" points="760 -54 580 -54 580 -18 760 -18 760 -54"/><text x="670" y="-31.8" font-family="Helvetica, Arial, sans-serif" font-size="14" text-anchor="middle">Margaery</text></g><g id="edge34" class="edge"><title>siblings_3-&gt;Margaery</title><path fill="none" stroke="#e67e22" d="M548,-62.3326C548,-58.1748 548,-36 548,-36 548,-36 569.736,-36 569.736,-36"/><polygon fill="#e67e22" stroke="#e67e22" points="577.735 -26 577.736 -46 573.736 -46 573.735 -26 577.735 -26"/><polyline fill="none" stroke="#e67e22" points="579.736 -36 569.736 -36"/></g><g id="node36" class="node"><title>Loras</title><polygon fill="#fff" stroke="#ccc" points="760 -108 580 -108 580 -72 760 -72 760 -108"/><text x="670" y="-85.8" font-family="Helvetica, Arial, sans-serif" font-size="14" text-anchor="middle">Loras</text></g><g id="edge35" class="edge"><title>siblings_3-&gt;Loras</title><path fill="none" stroke="#e67e22" d="M549,-63.6674C549,-67.8252 549,-90 549,-90 549,-90 569.846,-90 569.846,-90"/><polygon fill="#e67e22" stroke="#e67e22" points="577.846 -80 577.847 -100 573.847 -100 573.846 -80 577.846 -80"/><polyline fill="none" stroke="#e67e22" points="579.846 -90 569.846 -90"/></g><g id="node46" class="node"><title>union_4_2</title><ellipse cx="792.5" cy="-174" fill="#3498db" stroke="#fff" rx="3.5" ry="3.5"/></g><g id="edge43" class="edge"><title>Margaery-&gt;union_4_2</title><path fill="none" stroke="#3498db" stroke-dasharray="5 2" stroke-width=".25" d="M760.08,-45C771.893,-45 780,-45 780,-45 780,-45 780,-172.833 780,-172.833 780,-172.833 785.383,-172.833 789.084,-172.833"/></g><g id="node72" class="node"><title>union_7</title><ellipse cx="1073.5" cy="-358" fill="#1abc9c" stroke="#fff" rx="3.5" ry="3.5"/></g><g id="edge73" class="edge"><title>Margaery-&gt;union_7</title><path fill="none" stroke="#1abc9c" stroke-dasharray="5 2" stroke-width=".25" d="M760.096,-36C787.729,-36 811,-36 811,-36 811,-36 811,-358 811,-358 811,-358 1037.88,-358 1069.79,-358"/></g><g id="node73" class="node"><title>union_8</title><ellipse cx="1073.5" cy="-178" fill="#2ecc71" stroke="#fff" rx="3.5" ry="3.5"/></g><g id="edge75" class="edge"><title>Margaery-&gt;union_8</title><path fill="none" stroke="#2ecc71" stroke-dasharray="5 2" stroke-width=".25" d="M760.163,-27C879.231,-27 1074,-27 1074,-27 1074,-27 1074,-151.015 1074,-174.267"/></g><g id="node79" class="node"><title>union_12</title><ellipse cx="792.5" cy="-134" fill="#f1c40f" stroke="#fff" rx="3.5" ry="3.5"/></g><g id="edge83" class="edge"><title>Loras-&gt;union_12</title><path fill="none" stroke="#f1c40f" stroke-dasharray="5 2" stroke-width=".25" d="M760.038,-90C778.794,-90 793,-90 793,-90 793,-90 793,-119.608 793,-130.249"/></g><g id="node37" class="node"><title>union_4_0</title><ellipse cx="792.5" cy="-238" fill="#1abc9c" stroke="#fff" rx="3.5" ry="3.5"/></g><g id="node39" class="node"><title>siblings_4_0</title><polygon fill="#1abc9c" stroke="#ccc" stroke-width="0" points="832 -238.5 825 -238.5 825 -237.5 832 -237.5 832 -238.5"/></g><g id="edge37" class="edge"><title>union_4_0-&gt;siblings_4_0</title><path fill="none" stroke="#1abc9c" d="M796.083,-238C802.913,-238 817.732,-238 824.715,-238"/></g><g id="node38" class="node"><title>Robert</title><polygon fill="#fff" stroke="#ccc" points="760 -259 580 -259 580 -217 760 -217 760 -259"/><text x="648.997" y="-240.4" font-family="Helvetica, Arial, sans-serif" font-size="14" text-anchor="start">Robert</text><text x="630.543" y="-226" fill="#aaa" font-family="Helvetica, Arial, sans-serif" font-size="10" text-anchor="start">Robert Baratheon</text></g><g id="edge36" class="edge"><title>Robert-&gt;union_4_0</title><path fill="none" stroke="#1abc9c" stroke-dasharray="5 2" stroke-width=".25" d="M760.315,-238C772.938,-238 783.417,-238 788.733,-238"/></g><g id="node53" class="node"><title>union_5_2</title><ellipse cx="792.5" cy="-548" fill="#e67e22" stroke="#fff" rx="3.5" ry="3.5"/></g><g id="edge54" class="edge"><title>Robert-&gt;union_5_2</title><path fill="none" stroke="#e67e22" stroke-dasharray="5 2" stroke-width=".25" d="M760.046,-248.75C766.185,-248.75 770,-248.75 770,-248.75 770,-248.75 770,-546.833 770,-546.833 770,-546.833 782.656,-546.833 788.984,-546.833"/></g><g id="node40" class="node"><title>Gendry</title><polygon fill="#fff" stroke="#ccc" points="1041 -256 861 -256 861 -220 1041 -220 1041 -256"/><text x="951" y="-233.8" font-family="Helvetica, Arial, sans-serif" font-size="14" text-anchor="middle">Gendry</text></g><g id="edge38" class="edge"><title>siblings_4_0-&gt;Gendry</title><path fill="none" stroke="#1abc9c" d="M832.034,-238C832.034,-238 850.811,-238 850.811,-238"/><polygon fill="#1abc9c" stroke="#1abc9c" points="858.81 -228 858.811 -248 854.811 -248 854.81 -228 858.81 -228"/><polyline fill="none" stroke="#1abc9c" points="860.811 -238 850.811 -238"/></g><g id="node41" class="node"><title>union_4_1</title><ellipse cx="792.5" cy="-326" fill="#2ecc71" stroke="#fff" rx="3.5" ry="3.5"/></g><g id="node44" class="node"><title>siblings_4_1</title><polygon fill="#2ecc71" stroke="#ccc" stroke-width="0" points="832 -326.5 825 -326.5 825 -325.5 832 -325.5 832 -326.5"/></g><g id="edge41" class="edge"><title>union_4_1-&gt;siblings_4_1</title><path fill="none" stroke="#2ecc71" d="M796.083,-326C802.913,-326 817.732,-326 824.715,-326"/></g><g id="node42" class="node"><title>Stannis</title><polygon fill="#fff" stroke="#ccc" points="760 -373 580 -373 580 -337 760 -337 760 -373"/><text x="670" y="-350.8" font-family="Helvetica, Arial, sans-serif" font-size="14" text-anchor="middle">Stannis</text></g><g id="edge39" class="edge"><title>Stannis-&gt;union_4_1</title><path fill="none" stroke="#2ecc71" d="M760.116,-340.5C779.348,-340.5 794,-340.5 794,-340.5 794,-340.5 794,-333.646 794,-329.363"/></g><g id="node82" class="node"><title>union_14</title><ellipse cx="792.5" cy="-431" fill="#e74c3c" stroke="#fff" rx="3.5" ry="3.5"/></g><g id="edge87" class="edge"><title>Stannis-&gt;union_14</title><path fill="none" stroke="#e74c3c" stroke-dasharray="5 2" stroke-width=".25" d="M760.264,-367.25C778.391,-367.25 792,-367.25 792,-367.25 792,-367.25 792,-413.479 792,-427.203"/></g><g id="node43" class="node"><title>Selyse</title><polygon fill="#f4f4f4" stroke="#ccc" stroke-width="0" points="760 -319 580 -319 580 -277 760 -277 760 -319"/><text x="649.496" y="-300.4" font-family="Helvetica, Arial, sans-serif" font-size="14" text-anchor="start">Selyse</text><text x="638.551" y="-286" fill="#aaa" font-family="Helvetica, Arial, sans-serif" font-size="10" text-anchor="start">Selyse Florent</text></g><g id="edge40" class="edge"><title>Selyse-&gt;union_4_1</title><path fill="none" stroke="#2ecc71" d="M760.038,-313.5C778.794,-313.5 793,-313.5 793,-313.5 793,-313.5 793,-318.63 793,-322.317"/></g><g id="node45" class="node"><title>Shireen</title><polygon fill="#fff" stroke="#ccc" points="1041 -344 861 -344 861 -308 1041 -308 1041 -344"/><text x="951" y="-321.8" font-family="Helvetica, Arial, sans-serif" font-size="14" text-anchor="middle">Shireen</text></g><g id="edge42" class="edge"><title>siblings_4_1-&gt;Shireen</title><path fill="none" stroke="#2ecc71" d="M832.034,-326C832.034,-326 850.811,-326 850.811,-326"/><polygon fill="#2ecc71" stroke="#2ecc71" points="858.81 -316 858.811 -336 854.811 -336 854.81 -316 858.81 -316"/><polyline fill="none" stroke="#2ecc71" points="860.811 -326 850.811 -326"/></g><g id="node47" class="node"><title>Renly</title><polygon fill="#fff" stroke="#ccc" points="760 -199 580 -199 580 -163 760 -163 760 -199"/><text x="670" y="-176.8" font-family="Helvetica, Arial, sans-serif" font-size="14" text-anchor="middle">Renly</text></g><g id="edge44" class="edge"><title>Renly-&gt;union_4_2</title><path fill="none" stroke="#3498db" stroke-dasharray="5 2" stroke-width=".25" d="M760.315,-175.167C773.225,-175.167 783.892,-175.167 789.088,-175.167"/></g><g id="edge84" class="edge"><title>Renly-&gt;union_12</title><path fill="none" stroke="#f1c40f" stroke-dasharray="5 2" stroke-width=".25" d="M760.038,-166.75C778.794,-166.75 793,-166.75 793,-166.75 793,-166.75 793,-145.953 793,-137.505"/></g><g id="node48" class="node"><title>siblings_4</title><polygon fill="#e74c3c" stroke="#ccc" stroke-width="0" points="551 -238.5 544 -238.5 544 -237.5 551 -237.5 551 -238.5"/></g><g id="edge45" class="edge"><title>siblings_4-&gt;Robert</title><path fill="none" stroke="#e74c3c" d="M551.034,-238C551.034,-238 569.811,-238 569.811,-238"/><polygon fill="#e74c3c" stroke="#e74c3c" points="577.81 -228 577.811 -248 573.811 -248 573.81 -228 577.81 -228"/><polyline fill="none" stroke="#e74c3c" points="579.811 -238 569.811 -238"/></g><g id="edge46" class="edge"><title>siblings_4-&gt;Stannis</title><path fill="none" stroke="#e74c3c" d="M547,-238.728C547,-248.437 547,-352 547,-352 547,-352 569.962,-352 569.962,-352"/><polygon fill="#e74c3c" stroke="#e74c3c" points="577.962 -342 577.962 -362 573.962 -362 573.962 -342 577.962 -342"/><polyline fill="none" stroke="#e74c3c" points="579.962 -352 569.962 -352"/></g><g id="edge47" class="edge"><title>siblings_4-&gt;Renly</title><path fill="none" stroke="#e74c3c" d="M547,-237.394C547,-231.461 547,-184 547,-184 547,-184 569.962,-184 569.962,-184"/><polygon fill="#e74c3c" stroke="#e74c3c" points="577.962 -174 577.962 -194 573.962 -194 573.962 -174 577.962 -174"/><polyline fill="none" stroke="#e74c3c" points="579.962 -184 569.962 -184"/></g><g id="node49" class="node"><title>union_5_0</title><ellipse cx="792.5" cy="-676" fill="#34495e" stroke="#fff" rx="3.5" ry="3.5"/></g><g id="node50" class="node"><title>Tyrion</title><polygon fill="#fff" stroke="#ccc" points="760 -726 580 -726 580 -684 760 -684 760 -726"/><text x="650.558" y="-707.4" font-family="Helvetica, Arial, sans-serif" font-size="14" text-anchor="start">Tyrion</text><text x="610.887" y="-693" fill="#aaa" font-family="Helvetica, Arial, sans-serif" font-size="10" text-anchor="start">Tyrion &quot;The Imp&quot; Lannister</text></g><g id="edge48" class="edge"><title>Tyrion-&gt;union_5_0</title><path fill="none" stroke="#34495e" stroke-dasharray="5 2" stroke-width=".25" d="M760.116,-698C779.348,-698 794,-698 794,-698 794,-698 794,-685.625 794,-679.438"/></g><g id="edge51" class="edge"><title>Tyrion-&gt;union_5_1</title><path fill="none" stroke="#f1c40f" stroke-dasharray="5 2" stroke-width=".25" d="M760.264,-712C778.391,-712 792,-712 792,-712 792,-712 792,-728.413 792,-736.107"/></g><g id="node51" class="node"><title>Shae</title><polygon fill="#fff" stroke="#ccc" points="760 -666 580 -666 580 -630 760 -630 760 -666"/><text x="670" y="-643.8" font-family="Helvetica, Arial, sans-serif" font-size="14" text-anchor="middle">Shae</text></g><g id="edge49" class="edge"><title>Shae-&gt;union_5_0</title><path fill="none" stroke="#34495e" stroke-dasharray="5 2" stroke-width=".25" d="M760.116,-648C779.348,-648 794,-648 794,-648 794,-648 794,-665.09 794,-672.567"/></g><g id="node56" class="node"><title>siblings_5_2</title><polygon fill="#e67e22" stroke="#ccc" stroke-width="0" points="832 -548.5 825 -548.5 825 -547.5 832 -547.5 832 -548.5"/></g><g id="edge55" class="edge"><title>union_5_2-&gt;siblings_5_2</title><path fill="none" stroke="#e67e22" d="M796.083,-548C802.913,-548 817.732,-548 824.715,-548"/></g><g id="node54" class="node"><title>Cersei</title><polygon fill="#fff" stroke="#ccc" points="760 -612 580 -612 580 -570 760 -570 760 -612"/><text x="649.78" y="-593.4" font-family="Helvetica, Arial, sans-serif" font-size="14" text-anchor="start">Cersei</text><text x="633.607" y="-579" fill="#aaa" font-family="Helvetica, Arial, sans-serif" font-size="10" text-anchor="start">Cersei Lannister</text></g><g id="edge52" class="edge"><title>Cersei-&gt;union_5_2</title><path fill="none" stroke="#e67e22" d="M760.264,-577C778.391,-577 792,-577 792,-577 792,-577 792,-559.3 792,-551.556"/></g><g id="node55" class="node"><title>Jaime</title><polygon fill="#fff" stroke="#ccc" points="760 -552 580 -552 580 -510 760 -510 760 -552"/><text x="651.834" y="-533.4" font-family="Helvetica, Arial, sans-serif" font-size="14" text-anchor="start">Jaime</text><text x="606.942" y="-519" fill="#aaa" font-family="Helvetica, Arial, sans-serif" font-size="10" text-anchor="start">Jaime &quot;Kingslayer&quot; Lannister</text></g><g id="edge53" class="edge"><title>Jaime-&gt;union_5_2</title><path fill="none" stroke="#e67e22" d="M760.315,-549.167C773.225,-549.167 783.892,-549.167 789.088,-549.167"/></g><g id="node57" class="node"><title>Joffrey</title><polygon fill="#fff" stroke="#ccc" points="1041 -620 861 -620 861 -584 1041 -584 1041 -620"/><text x="951" y="-597.8" font-family="Helvetica, Arial, sans-serif" font-size="14" text-anchor="middle">Joffrey</text></g><g id="edge56" class="edge"><title>siblings_5_2-&gt;Joffrey</title><path fill="none" stroke="#e67e22" d="M829,-548.562C829,-554.055 829,-598 829,-598 829,-598 850.736,-598 850.736,-598"/><polygon fill="#e67e22" stroke="#e67e22" points="858.735 -588 858.736 -608 854.736 -608 854.735 -588 858.735 -588"/><polyline fill="none" stroke="#e67e22" points="860.736 -598 850.736 -598"/></g><g id="node58" class="node"><title>Myrcella</title><polygon fill="#fff" stroke="#ccc" points="1041 -512 861 -512 861 -476 1041 -476 1041 -512"/><text x="951" y="-489.8" font-family="Helvetica, Arial, sans-serif" font-size="14" text-anchor="middle">Myrcella</text></g><g id="edge57" class="edge"><title>siblings_5_2-&gt;Myrcella</title><path fill="none" stroke="#e67e22" d="M829,-547.382C829,-541.34 829,-493 829,-493 829,-493 850.736,-493 850.736,-493"/><polygon fill="#e67e22" stroke="#e67e22" points="858.735 -483 858.736 -503 854.736 -503 854.735 -483 858.735 -483"/><polyline fill="none" stroke="#e67e22" points="860.736 -493 850.736 -493"/></g><g id="node59" class="node"><title>Tommen</title><polygon fill="#fff" stroke="#ccc" points="1041 -566 861 -566 861 -530 1041 -530 1041 -566"/><text x="951" y="-543.8" font-family="Helvetica, Arial, sans-serif" font-size="14" text-anchor="middle">Tommen</text></g><g id="edge58" class="edge"><title>siblings_5_2-&gt;Tommen</title><path fill="none" stroke="#e67e22" d="M832.034,-548C832.034,-548 850.811,-548 850.811,-548"/><polygon fill="#e67e22" stroke="#e67e22" points="858.81 -538 858.811 -558 854.811 -558 854.81 -538 858.81 -538"/><polyline fill="none" stroke="#e67e22" points="860.811 -548 850.811 -548"/></g><g id="edge74" class="edge"><title>Joffrey-&gt;union_7</title><path fill="none" stroke="#1abc9c" stroke-dasharray="5 2" stroke-width=".25" d="M1041.26,-596C1059.39,-596 1073,-596 1073,-596 1073,-596 1073,-392.017 1073,-361.738"/></g><g id="edge82" class="edge"><title>Joffrey-&gt;union_11</title><path fill="none" stroke="#34495e" stroke-dasharray="5 2" stroke-width=".25" d="M1041.12,-608C1060.35,-608 1075,-608 1075,-608 1075,-608 1075,-741.682 1075,-764.658"/></g><g id="edge76" class="edge"><title>Tommen-&gt;union_8</title><path fill="none" stroke="#2ecc71" stroke-dasharray="5 2" stroke-width=".25" d="M1041.38,-548C1070.31,-548 1095,-548 1095,-548 1095,-548 1095,-178 1095,-178 1095,-178 1083.4,-178 1077.25,-178"/></g><g id="node60" class="node"><title>union_5</title><ellipse cx="511.5" cy="-591" fill="#9b59b6" stroke="#fff" rx="3.5" ry="3.5"/></g><g id="node63" class="node"><title>siblings_5</title><polygon fill="#9b59b6" stroke="#ccc" stroke-width="0" points="551 -591.5 544 -591.5 544 -590.5 551 -590.5 551 -591.5"/></g><g id="edge61" class="edge"><title>union_5-&gt;siblings_5</title><path fill="none" stroke="#9b59b6" d="M515.083,-591C521.913,-591 536.732,-591 543.715,-591"/></g><g id="node61" class="node"><title>Tywin</title><polygon fill="#fff" stroke="#ccc" points="479 -636 299 -636 299 -600 479 -600 479 -636"/><text x="389" y="-613.8" font-family="Helvetica, Arial, sans-serif" font-size="14" text-anchor="middle">Tywin</text></g><g id="edge59" class="edge"><title>Tywin-&gt;union_5</title><path fill="none" stroke="#9b59b6" d="M479.116,-606C498.348,-606 513,-606 513,-606 513,-606 513,-598.584 513,-594.181"/></g><g id="node62" class="node"><title>Joanna</title><polygon fill="#f4f4f4" stroke="#ccc" stroke-width="0" points="479 -582 299 -582 299 -546 479 -546 479 -582"/><text x="389" y="-559.8" font-family="Helvetica, Arial, sans-serif" font-size="14" text-anchor="middle">Joanna</text></g><g id="edge60" class="edge"><title>Joanna-&gt;union_5</title><path fill="none" stroke="#9b59b6" d="M479.038,-576C497.794,-576 512,-576 512,-576 512,-576 512,-583.09 512,-587.521"/></g><g id="edge62" class="edge"><title>siblings_5-&gt;Tyrion</title><path fill="none" stroke="#9b59b6" d="M546,-591.728C546,-601.437 546,-705 546,-705 546,-705 569.884,-705 569.884,-705"/><polygon fill="#9b59b6" stroke="#9b59b6" points="577.883 -695 577.884 -715 573.884 -715 573.883 -695 577.883 -695"/><polyline fill="none" stroke="#9b59b6" points="579.884 -705 569.884 -705"/></g><g id="edge63" class="edge"><title>siblings_5-&gt;Cersei</title><path fill="none" stroke="#9b59b6" d="M551.034,-591C551.034,-591 569.811,-591 569.811,-591"/><polygon fill="#9b59b6" stroke="#9b59b6" points="577.81 -581 577.811 -601 573.811 -601 573.81 -581 577.81 -581"/><polyline fill="none" stroke="#9b59b6" points="579.811 -591 569.811 -591"/></g><g id="edge64" class="edge"><title>siblings_5-&gt;Jaime</title><path fill="none" stroke="#9b59b6" d="M549,-590.292C549,-583.371 549,-528 549,-528 549,-528 569.846,-528 569.846,-528"/><polygon fill="#9b59b6" stroke="#9b59b6" points="577.846 -518 577.847 -538 573.847 -538 573.846 -518 577.846 -518"/><polyline fill="none" stroke="#9b59b6" points="579.846 -528 569.846 -528"/></g><g id="node64" class="node"><title>union_6</title><ellipse cx="230.5" cy="-295" fill="#e74c3c" stroke="#fff" rx="3.5" ry="3.5"/></g><g id="node67" class="node"><title>siblings_6</title><polygon fill="#e74c3c" stroke="#ccc" stroke-width="0" points="270 -295.5 263 -295.5 263 -294.5 270 -294.5 270 -295.5"/></g><g id="edge67" class="edge"><title>union_6-&gt;siblings_6</title><path fill="none" stroke="#e74c3c" d="M234.083,-295C240.913,-295 255.732,-295 262.715,-295"/></g><g id="node65" class="node"><title>Hoster</title><polygon fill="#f4f4f4" stroke="#ccc" stroke-width="0" points="198 -342 18 -342 18 -300 198 -300 198 -342"/><text x="87.888" y="-323.4" font-family="Helvetica, Arial, sans-serif" font-size="14" text-anchor="start">Hoster</text><text x="81.835" y="-309" fill="#aaa" font-family="Helvetica, Arial, sans-serif" font-size="10" text-anchor="start">Hoster Tully</text></g><g id="edge65" class="edge"><title>Hoster-&gt;union_6</title><path fill="none" stroke="#e74c3c" d="M198.116,-306.5C217.348,-306.5 232,-306.5 232,-306.5 232,-306.5 232,-302.008 232,-298.639"/></g><g id="node66" class="node"><title>Minisa</title><polygon fill="#f4f4f4" stroke="#ccc" stroke-width="0" points="198 -282 18 -282 18 -240 198 -240 198 -282"/><text x="87.781" y="-263.4" font-family="Helvetica, Arial, sans-serif" font-size="14" text-anchor="start">Minisa</text><text x="77.721" y="-249" fill="#aaa" font-family="Helvetica, Arial, sans-serif" font-size="10" text-anchor="start">Minisa Whent</text></g><g id="edge66" class="edge"><title>Minisa-&gt;union_6</title><path fill="none" stroke="#e74c3c" d="M198.038,-268C216.794,-268 231,-268 231,-268 231,-268 231,-283.827 231,-291.246"/></g><g id="edge68" class="edge"><title>siblings_6-&gt;Catelyn</title><path fill="none" stroke="#e74c3c" d="M265,-295.599C265,-320.642 265,-1122 265,-1122 265,-1122 288.884,-1122 288.884,-1122"/><polygon fill="#e74c3c" stroke="#e74c3c" points="296.883 -1112 296.884 -1132 292.884 -1132 292.883 -1112 296.883 -1112"/><polyline fill="none" stroke="#e74c3c" points="298.884 -1122 288.884 -1122"/></g><g id="node68" class="node"><title>Lysa</title><polygon fill="#fff" stroke="#ccc" points="479 -313 299 -313 299 -277 479 -277 479 -313"/><text x="389" y="-290.8" font-family="Helvetica, Arial, sans-serif" font-size="14" text-anchor="middle">Lysa</text></g><g id="edge69" class="edge"><title>siblings_6-&gt;Lysa</title><path fill="none" stroke="#e74c3c" d="M270.034,-295C270.034,-295 288.811,-295 288.811,-295"/><polygon fill="#e74c3c" stroke="#e74c3c" points="296.81 -285 296.811 -305 292.811 -305 292.81 -285 296.81 -285"/><polyline fill="none" stroke="#e74c3c" points="298.811 -295 288.811 -295"/></g><g id="node69" class="node"><title>Edmure</title><polygon fill="#f4f4f4" stroke="#ccc" stroke-width="0" points="479 -367 299 -367 299 -331 479 -331 479 -367"/><text x="389" y="-344.8" font-family="Helvetica, Arial, sans-serif" font-size="14" text-anchor="middle">Edmure</text></g><g id="edge70" class="edge"><title>siblings_6-&gt;Edmure</title><path fill="none" stroke="#e74c3c" d="M268,-295.72C268,-301.231 268,-336.5 268,-336.5 268,-336.5 288.846,-336.5 288.846,-336.5"/><polygon fill="#e74c3c" stroke="#e74c3c" points="296.846 -326.5 296.847 -346.5 292.847 -346.5 292.846 -326.5 296.846 -326.5"/><polyline fill="none" stroke="#e74c3c" points="298.846 -336.5 288.846 -336.5"/></g><g id="node70" class="node"><title>Robin Arryn</title><polygon fill="#fff" stroke="#ccc" points="479 -205 299 -205 299 -169 479 -169 479 -205"/><text x="389" y="-182.8" font-family="Helvetica, Arial, sans-serif" font-size="14" text-anchor="middle">Robin Arryn</text></g><g id="edge71" class="edge"><title>siblings_6-&gt;Robin Arryn</title><path fill="none" stroke="#e74c3c" d="M266,-294.31C266,-285.112 266,-187 266,-187 266,-187 288.962,-187 288.962,-187"/><polygon fill="#e74c3c" stroke="#e74c3c" points="296.962 -177 296.962 -197 292.962 -197 292.962 -177 296.962 -177"/><polyline fill="none" stroke="#e74c3c" points="298.962 -187 288.962 -187"/></g><g id="node71" class="node"><title>Brynden</title><polygon fill="#f4f4f4" stroke="#ccc" stroke-width="0" points="479 -259 299 -259 299 -223 479 -223 479 -259"/><text x="389" y="-236.8" font-family="Helvetica, Arial, sans-serif" font-size="14" text-anchor="middle">Brynden</text></g><g id="edge72" class="edge"><title>siblings_6-&gt;Brynden</title><path fill="none" stroke="#e74c3c" d="M268,-294.489C268,-289.49 268,-249.5 268,-249.5 268,-249.5 288.846,-249.5 288.846,-249.5"/><polygon fill="#e74c3c" stroke="#e74c3c" points="296.846 -239.5 296.847 -259.5 292.847 -259.5 292.846 -239.5 296.846 -239.5"/><polyline fill="none" stroke="#e74c3c" points="298.846 -249.5 288.846 -249.5"/></g><g id="node76" class="node"><title>union_10</title><ellipse cx="511.5" cy="-426" fill="#9b59b6" stroke="#fff" rx="3.5" ry="3.5"/></g><g id="edge79" class="edge"><title>Lysa-&gt;union_10</title><path fill="none" stroke="#9b59b6" stroke-dasharray="5 2" stroke-width=".25" d="M479.038,-295C497.794,-295 512,-295 512,-295 512,-295 512,-401.663 512,-422.496"/></g><g id="node75" class="node"><title>Drogo</title><polygon fill="#f4f4e0" stroke="#ccc" stroke-width="0" points="479 -1872 299 -1872 299 -1830 479 -1830 479 -1872"/><text x="369.942" y="-1853.4" font-family="Helvetica, Arial, sans-serif" font-size="14" text-anchor="start">Drogo</text><text x="363.995" y="-1839" fill="#aaa" font-family="Helvetica, Arial, sans-serif" font-size="10" text-anchor="start">Khal Drogo</text></g><g id="edge78" class="edge"><title>Drogo-&gt;union_9</title><path fill="none" stroke="#3498db" stroke-dasharray="5 2" stroke-width=".25" d="M479.315,-1842C491.938,-1842 502.417,-1842 507.733,-1842"/></g><g id="node77" class="node"><title>Littlefinger</title><polygon fill="#f4f4e0" stroke="#ccc" stroke-width="0" points="479 -456 299 -456 299 -414 479 -414 479 -456"/><text x="356.717" y="-437.4" font-family="Helvetica, Arial, sans-serif" font-size="14" text-anchor="start">Littlefinger</text><text x="331.553" y="-423" fill="#aaa" font-family="Helvetica, Arial, sans-serif" font-size="10" text-anchor="start">Petyr &quot;Littlefinger&quot; Baelish</text></g><g id="edge80" class="edge"><title>Littlefinger-&gt;union_10</title><path fill="none" stroke="#9b59b6" stroke-dasharray="5 2" stroke-width=".25" d="M479.315,-426C491.938,-426 502.417,-426 507.733,-426"/></g><g id="node81" class="node"><title>Daario</title><polygon fill="#f4f4e0" stroke="#ccc" stroke-width="0" points="479 -1601 299 -1601 299 -1559 479 -1559 479 -1601"/><text x="368.389" y="-1582.4" font-family="Helvetica, Arial, sans-serif" font-size="14" text-anchor="start">Daario</text><text x="355.666" y="-1568" fill="#aaa" font-family="Helvetica, Arial, sans-serif" font-size="10" text-anchor="start">Daario Naharis</text></g><g id="edge86" class="edge"><title>Daario-&gt;union_13</title><path fill="none" stroke="#e67e22" stroke-dasharray="5 2" stroke-width=".25" d="M479.315,-1588C491.938,-1588 502.417,-1588 507.733,-1588"/></g><g id="node83" class="node"><title>Melisandre</title><polygon fill="#f4f4e0" stroke="#ccc" stroke-width="0" points="760 -456 580 -456 580 -420 760 -420 760 -456"/><text x="670" y="-433.8" font-family="Helvetica, Arial, sans-serif" font-size="14" text-anchor="middle">Melisandre</text></g><g id="edge88" class="edge"><title>Melisandre-&gt;union_14</title><path fill="none" stroke="#e74c3c" stroke-dasharray="5 2" stroke-width=".25" d="M760.315,-431C772.938,-431 783.417,-431 788.733,-431"/></g></g></svg>