<svg xmlns="http://www.w3.org/2000/svg" xmlns:xlink="http://www.w3.org/1999/xlink" width="766pt" height="301pt" viewBox="0 0 766 301"><g id="graph0" class="graph" transform="scale(1 1) rotate(0) translate(4 297)"><title>G</title><polygon fill="#fff" stroke="none" points="-4 4 -4 -297 762 -297 762 4 -4 4"/><g id="clust1" class="cluster"><title>cluster_family_0</title></g><g id="clust4" class="cluster"><title>cluster_family_1</title></g><g id="clust7" class="cluster"><title>cluster_family_2</title></g><g id="node1" class="node"><title>union_0</title><ellipse cx="501.5" cy="-204" fill="#1abc9c" stroke="#fff" rx="3.5" ry="3.5"/></g><g id="node4" class="node"><title>siblings_0</title><polygon fill="#1abc9c" stroke="#ccc" stroke-width="0" points="541 -204.5 534 -204.5 534 -203.5 541 -203.5 541 -204.5"/></g><g id="edge3" class="edge"><title>union_0-&gt;siblings_0</title><path fill="none" stroke="#1abc9c" d="M505.083,-204C511.913,-204 526.732,-204 533.715,-204"/></g><g id="node2" class="node"><title>Homer</title><polygon fill="#fff" stroke="#ccc" points="469 -230 289 -230 289 -188 469 -188 469 -230"/><text x="358.504" y="-211.4" font-family="Helvetica, Arial, sans-serif" font-size="14" text-anchor="start">Homer</text><text x="343.666" y="-197" fill="#aaa" font-family="Helvetica, Arial, sans-serif" font-size="10" text-anchor="start">Homer Simpson</text></g><g id="edge1" class="edge"><title>Homer-&gt;union_0</title><path fill="none" stroke="#1abc9c" d="M469.315,-204C481.938,-204 492.417,-204 497.733,-204"/></g><g id="node3" class="node"><title>Marge</title><polygon fill="#fff" stroke="#ccc" points="469 -170 289 -170 289 -128 469 -128 469 -170"/><text x="359.166" y="-151.4" font-family="Helvetica, Arial, sans-serif" font-size="14" text-anchor="start">Marge</text><text x="314.827" y="-137" fill="#aaa" font-family="Helvetica, Arial, sans-serif" font-size="10" text-anchor="start">Marjorie Jacqueline Simpson</text></g><g id="edge2" class="edge"><title>Marge-&gt;union_0</title><path fill="none" stroke="#1abc9c" d="M469.038,-152.667C487.794,-152.667 502,-152.667 502,-152.667 502,-152.667 502,-188.538 502,-200.308"/></g><g id="node5" class="node"><title>Bart</title><polygon fill="#fff" stroke="#ccc" points="750 -165 570 -165 570 -123 750 -123 750 -165"/><text x="647.165" y="-146.4" font-family="Helvetica, Arial, sans-serif" font-size="14" text-anchor="start">Bart</text><text x="629.995" y="-132" fill="#aaa" font-family="Helvetica, Arial, sans-serif" font-size="10" text-anchor="start">Bart Simpson</text></g><g id="edge4" class="edge"><title>siblings_0-&gt;Bart</title><path fill="none" stroke="#1abc9c" d="M538,-203.285C538,-196.29 538,-140.333 538,-140.333 538,-140.333 559.736,-140.333 559.736,-140.333"/><polygon fill="#1abc9c" stroke="#1abc9c" points="567.736 -130.333 567.735 -150.333 563.735 -150.333 563.736 -130.333 567.736 -130.333"/><polyline fill="none" stroke="#1abc9c" points="569.736 -140.333 559.736 -140.333"/></g><g id="node6" class="node"><title>Lisa</title><polygon fill="#fff" stroke="#ccc" points="750 -225 570 -225 570 -183 750 -183 750 -225"/><text x="647.164" y="-206.4" font-family="Helvetica, Arial, sans-serif" font-size="14" text-anchor="start">Lisa</text><text x="629.995" y="-192" fill="#aaa" font-family="Helvetica, Arial, sans-serif" font-size="10" text-anchor="start">Lisa Simpson</text></g><g id="edge5" class="edge"><title>siblings_0-&gt;Lisa</title><path fill="none" stroke="#1abc9c" d="M541.034,-204C541.034,-204 559.811,-204 559.811,-204"/><polygon fill="#1abc9c" stroke="#1abc9c" points="567.81 -194 567.811 -214 563.811 -214 563.81 -194 567.81 -194"/><polyline fill="none" stroke="#1abc9c" points="569.811 -204 559.811 -204"/></g><g id="node7" class="node"><title>Maggie</title><polygon fill="#fff" stroke="#ccc" points="750 -285 570 -285 570 -243 750 -243 750 -285"/><text x="637.051" y="-266.4" font-family="Helvetica, Arial, sans-serif" font-size="14" text-anchor="start">Maggie</text><text x="622.772" y="-252" fill="#aaa" font-family="Helvetica, Arial, sans-serif" font-size="10" text-anchor="start">Maggie Simpson</text></g><g id="edge6" class="edge"><title>siblings_0-&gt;Maggie</title><path fill="none" stroke="#1abc9c" d="M538,-204.517C538,-209.57 538,-250 538,-250 538,-250 559.736,-250 559.736,-250"/><polygon fill="#1abc9c" stroke="#1abc9c" points="567.735 -240 567.736 -260 563.736 -260 563.735 -240 567.735 -240"/><polyline fill="none" stroke="#1abc9c" points="569.736 -250 559.736 -250"/></g><g id="node8" class="node"><title>union_1</title><ellipse cx="220.5" cy="-209" fill="#2ecc71" stroke="#fff" rx="3.5" ry="3.5"/></g><g id="node11" class="node"><title>siblings_1</title><polygon fill="#2ecc71" stroke="#ccc" stroke-width="0" points="260 -209.5 253 -209.5 253 -208.5 260 -208.5 260 -209.5"/></g><g id="edge9" class="edge"><title>union_1-&gt;siblings_1</title><path fill="none" stroke="#2ecc71" d="M224.083,-209C230.913,-209 245.732,-209 252.715,-209"/></g><g id="node9" class="node"><title>Abe</title><polygon fill="#fff" stroke="#ccc" points="188 -257 8 -257 8 -215 188 -215 188 -257"/><text x="86.049" y="-238.4" font-family="Helvetica, Arial, sans-serif" font-size="14" text-anchor="start">Abe</text><text x="68.77" y="-224" fill="#aaa" font-family="Helvetica, Arial, sans-serif" font-size="10" text-anchor="start">Abe Simpson</text></g><g id="edge7" class="edge"><title>Abe-&gt;union_1</title><path fill="none" stroke="#2ecc71" d="M188.038,-222.5C206.794,-222.5 221,-222.5 221,-222.5 221,-222.5 221,-216.686 221,-212.689"/></g><g id="node10" class="node"><title>Mona</title><polygon fill="#fff" stroke="#ccc" points="188 -197 8 -197 8 -155 188 -155 188 -197"/><text x="80.496" y="-178.4" font-family="Helvetica, Arial, sans-serif" font-size="14" text-anchor="start">Mona</text><text x="64.66" y="-164" fill="#aaa" font-family="Helvetica, Arial, sans-serif" font-size="10" text-anchor="start">Mona Simpson</text></g><g id="edge8" class="edge"><title>Mona-&gt;union_1</title><path fill="none" stroke="#2ecc71" d="M188.038,-192.5C206.794,-192.5 221,-192.5 221,-192.5 221,-192.5 221,-200.657 221,-205.501"/></g><g id="edge10" class="edge"><title>siblings_1-&gt;Homer</title><path fill="none" stroke="#2ecc71" d="M260.034,-209C260.034,-209 278.811,-209 278.811,-209"/><polygon fill="#2ecc71" stroke="#2ecc71" points="286.81 -199 286.811 -219 282.811 -219 282.81 -199 286.81 -199"/><polyline fill="none" stroke="#2ecc71" points="288.811 -209 278.811 -209"/></g><g id="node12" class="node"><title>union_2</title><ellipse cx="220.5" cy="-89" fill="#3498db" stroke="#fff" rx="3.5" ry="3.5"/></g><g id="node15" class="node"><title>siblings_2</title><polygon fill="#3498db" stroke="#ccc" stroke-width="0" points="260 -89.5 253 -89.5 253 -88.5 260 -88.5 260 -89.5"/></g><g id="edge13" class="edge"><title>union_2-&gt;siblings_2</title><path fill="none" stroke="#3498db" d="M224.083,-89C230.913,-89 245.732,-89 252.715,-89"/></g><g id="node13" class="node"><title>Jacqueline</title><polygon fill="#fff" stroke="#ccc" points="188 -110 8 -110 8 -68 188 -68 188 -110"/><text x="64.546" y="-91.4" font-family="Helvetica, Arial, sans-serif" font-size="14" text-anchor="start">Jacqueline</text><text x="55.767" y="-77" fill="#aaa" font-family="Helvetica, Arial, sans-serif" font-size="10" text-anchor="start">Jacqueline Bouvier</text></g><g id="edge11" class="edge"><title>Jacqueline-&gt;union_2</title><path fill="none" stroke="#3498db" d="M188.315,-89C200.938,-89 211.417,-89 216.733,-89"/></g><g id="node14" class="node"><title>Clancy</title><polygon fill="#fff" stroke="#ccc" points="188 -50 8 -50 8 -8 188 -8 188 -50"/><text x="77.111" y="-31.4" font-family="Helvetica, Arial, sans-serif" font-size="14" text-anchor="start">Clancy</text><text x="64.885" y="-17" fill="#aaa" font-family="Helvetica, Arial, sans-serif" font-size="10" text-anchor="start">Clancy Bouvier</text></g><g id="edge12" class="edge"><title>Clancy-&gt;union_2</title><path fill="none" stroke="#3498db" d="M188.038,-36C206.794,-36 221,-36 221,-36 221,-36 221,-73.7314 221,-85.5225"/></g><g id="edge14" class="edge"><title>siblings_2-&gt;Marge</title><path fill="none" stroke="#3498db" d="M257,-89.5896C257,-95.3574 257,-141.5 257,-141.5 257,-141.5 278.736,-141.5 278.736,-141.5"/><polygon fill="#3498db" stroke="#3498db" points="286.735 -131.5 286.736 -151.5 282.736 -151.5 282.735 -131.5 286.735 -131.5"/><polyline fill="none" stroke="#3498db" points="288.736 -141.5 278.736 -141.5"/></g><g id="node16" class="node"><title>Patty</title><polygon fill="#fff" stroke="#ccc" points="469 -50 289 -50 289 -8 469 -8 469 -50"/><text x="363.55" y="-31.4" font-family="Helvetica, Arial, sans-serif" font-size="14" text-anchor="start">Patty</text><text x="349.77" y="-17" fill="#aaa" font-family="Helvetica, Arial, sans-serif" font-size="10" text-anchor="start">Patty Bouvier</text></g><g id="edge15" class="edge"><title>siblings_2-&gt;Patty</title><path fill="none" stroke="#3498db" d="M257,-88.2476C257,-80.8867 257,-22 257,-22 257,-22 278.736,-22 278.736,-22"/><polygon fill="#3498db" stroke="#3498db" points="286.735 -12 286.736 -32 282.736 -32 282.735 -12 286.735 -12"/><polyline fill="none" stroke="#3498db" points="288.736 -22 278.736 -22"/></g><g id="node17" class="node"><title>Selma</title><polygon fill="#fff" stroke="#ccc" points="469 -110 289 -110 289 -68 469 -68 469 -110"/><text x="359.666" y="-91.4" font-family="Helvetica, Arial, sans-serif" font-size="14" text-anchor="start">Selma</text><text x="346.996" y="-77" fill="#aaa" font-family="Helvetica, Arial, sans-serif" font-size="10" text-anchor="start">Selma Bouvier</text></g><g id="edge16" class="edge"><title>siblings_2-&gt;Selma</title><path fill="none" stroke="#3498db" d="M260.034,-89C260.034,-89 278.811,-89 278.811,-89"/><polygon fill="#3498db" stroke="#3498db" points="286.81 -79 286.811 -99 282.811 -99 282.81 -79 286.81 -79"/><polyline fill="none" stroke="#3498db" points="288.811 -89 278.811 -89"/></g></g></svg>